<?xml version="1.0" encoding="UTF-8" standalone="no"?>
<svg
   xmlns:dc="http://purl.org/dc/elements/1.1/"
   xmlns:cc="http://creativecommons.org/ns#"
   xmlns:rdf="http://www.w3.org/1999/02/22-rdf-syntax-ns#"
   xmlns:svg="http://www.w3.org/2000/svg"
   xmlns="http://www.w3.org/2000/svg"
   xml:space="preserve"
   style="enable-background:new 0 0 508 508;"
   viewBox="0 0 508 508"
   y="0px"
   x="0px"
   id="Layer_1"
   version="1.1"><metadata
   id="metadata3859"><rdf:RDF><cc:Work
       rdf:about=""><dc:format>image/svg+xml</dc:format><dc:type
         rdf:resource="http://purl.org/dc/dcmitype/StillImage" /><dc:title></dc:title></cc:Work></rdf:RDF></metadata><defs
   id="defs3857" />

<polygon
   transform="matrix(1.3784953,0,0,1.3784953,-96.137818,-96.137818)"
   id="polygon3808"
   points="301.2,404.4 418.4,347.2 418.4,109.6 301.2,166.4 "
   style="fill:#84dbff" />
<path
   id="path3810"
   d="m 319.06498,161.91651 v 8.27097 l 20.40173,-9.92516 v 96.49467 l -20.40173,9.92517 v 8.27097 l 28.6727,-13.78495 V 156.40253 l 96.49468,-46.86884 v 96.49467 l -47.97164,23.71012 v 7.71958 l 47.97164,-23.71012 v 44.66325 l -125.16738,60.65379 v 8.27097 l 20.40173,-9.92516 v 96.49467 l -20.40173,9.92517 v 8.27097 L 452.50333,367.03662 V 96.85153 Z m 124.61598,201.26032 -95.94328,47.42024 V 314.1024 l 96.49468,-46.86884 v 95.94327 z"
   style="fill:#ffffff;stroke-width:1.37849534" />
<polygon
   transform="matrix(1.3784953,0,0,1.3784953,-96.137818,-96.137818)"
   id="polygon3812"
   points="89.6,166.4 89.6,404.4 199.6,341.6 199.6,103.6 "
   style="fill:#84dbff" />
<polygon
   transform="matrix(1.3784953,0,0,1.3784953,-96.137818,-96.137818)"
   id="polygon3814"
   points="182.8,324.4 182.8,280.8 176.8,284 176.8,327.6 116.4,362.4 116.4,273.2 176.8,238.4 176.8,248.8 182.8,245.6 182.8,218.8 176.8,222.4 176.8,232.4 116.4,267.2 116.4,178 176.8,143.6 176.8,187.2 182.8,183.6 182.8,140 199.6,130.4 199.6,124.4 110.4,175.6 110.4,371.6 199.6,320.8 199.6,314.8 "
   style="fill:#ffffff" />
<polygon
   transform="matrix(1.3784953,0,0,1.3784953,-96.137818,-96.137818)"
   id="polygon3816"
   points="198.8,341.6 301.2,404.4 301.2,166.4 198.8,103.6 "
   style="fill:#54c0eb" />
<g
   transform="matrix(1.3784953,0,0,1.3784953,-96.137818,-96.137818)"
   id="g3822">
	<polygon
   id="polygon3818"
   points="198.8,314.8 198.8,320.8 301.2,383.6 301.2,377.6 246.8,344 246.8,274 301.2,307.6 301.2,301.6 240.8,264.4 240.8,340.4 "
   style="fill:#e6e9ee" />
	<polygon
   id="polygon3820"
   points="301.2,187.2 198.8,124.4 198.8,130.4 222.8,145.2 222.8,221.2 301.2,269.2 301.2,263.2 228.4,218.8 228.4,148.8 301.2,193.2 "
   style="fill:#e6e9ee" />
</g>
<g
   id="g3824">
</g>
<g
   id="g3826">
</g>
<g
   id="g3828">
</g>
<g
   id="g3830">
</g>
<g
   id="g3832">
</g>
<g
   id="g3834">
</g>
<g
   id="g3836">
</g>
<g
   id="g3838">
</g>
<g
   id="g3840">
</g>
<g
   id="g3842">
</g>
<g
   id="g3844">
</g>
<g
   id="g3846">
</g>
<g
   id="g3848">
</g>
<g
   id="g3850">
</g>
<g
   id="g3852">
</g>
</svg>